<svg width="40" height="40" viewBox="0 0 40 40" fill="none" xmlns="http://www.w3.org/2000/svg">
<path d="M32.7499 15.0667L24.6832 14.3667L21.5332 6.95C20.9665 5.6 19.0332 5.6 18.4665 6.95L15.3165 14.3833L7.26654 15.0667C5.79988 15.1833 5.19988 17.0167 6.31654 17.9833L12.4332 23.2833L10.5999 31.15C10.2665 32.5833 11.8165 33.7167 13.0832 32.95L19.9999 28.7833L26.9165 32.9667C28.1832 33.7333 29.7332 32.6 29.3999 31.1667L27.5665 23.2833L33.6832 17.9833C34.7999 17.0167 34.2165 15.1833 32.7499 15.0667ZM19.9999 25.6667L13.7332 29.45L15.3999 22.3167L9.86654 17.5167L17.1665 16.8833L19.9999 10.1667L22.8499 16.9L30.1499 17.5333L24.6165 22.3333L26.2832 29.4667L19.9999 25.6667Z" fill="#FFD233"/>
</svg>
